GIL03_slow3_RRA_states
nRows=4
nColumns=47

# SIMM Motion File Header:
name GIL03_slow3_RRA_states
datacolumns 47
datarows 4
otherdata 1
range 1.15566999999998350000 1.15716999999998340000
endheader
time	pelvis_tx	pelvis_ty	pelvis_tz	pelvis_tilt	pelvis_list	pelvis_rotation	hip_flexion_r	hip_adduction_r	hip_rotation_r	knee_angle_r	ankle_angle_r	subtalar_angle_r	mtp_angle_r	hip_flexion_l	hip_adduction_l	hip_rotation_l	knee_angle_l	ankle_angle_l	subtalar_angle_l	mtp_angle_l	lumbar_extension	lumbar_bending	lumbar_rotation	pelvis_tx_u	pelvis_ty_u	pelvis_tz_u	pelvis_tilt_u	pelvis_list_u	pelvis_rotation_u	hip_flexion_r_u	hip_adduction_r_u	hip_rotation_r_u	knee_angle_r_u	ankle_angle_r_u	subtalar_angle_r_u	mtp_angle_r_u	hip_flexion_l_u	hip_adduction_l_u	hip_rotation_l_u	knee_angle_l_u	ankle_angle_l_u	subtalar_angle_l_u	mtp_angle_l_u	lumbar_extension_u	lumbar_bending_u	lumbar_rotation_u
      1.15566999999998350000	      1.37849700086900270000	      0.89963688994490598000	     -0.21265009898998508000	      2.60459162675635580000	      0.74337188043205726000	     -2.19523972003317660000	     11.53920829553730200000	     -3.61505894275510100000	     -1.65227944008350410000	    -59.95259475903180400000	      6.03006447936374990000	     -0.00000000000106437830	      0.00000000000043691232	      2.44854921144351100000	      4.47175042160648140000	     -0.69225251146291189000	    -15.07079127224492700000	      9.20859568726147510000	     -0.00000000000001286778	     -0.00000000000003575356	     -8.65052099044013010000	      0.37759396348856900000	      6.97068988338532240000	      0.58252047886271840000	      0.03578311353487266500	     -0.03779086312463277000	     22.38164306472020100000	     -5.86226552084355660000	     12.78644272687602200000	     95.35312614260993800000	     16.74500977969387700000	     35.34469205808453300000	      1.89208444378042940000	     41.69216311416339900000	     -0.00000000000223388272	      0.00000000000125344592	    -84.10152235240190100000	      0.85918889578755731000	      8.80927087723013180000	     36.74939497788845700000	     16.10096579503004600000	      0.00000000000007335467	     -0.00000000000041858062	    -27.17131417755992800000	      9.05838592233977740000	     -9.60119091146055760000
      1.15616999999998350000	      1.37878814726530140000	      0.89965467184243675000	     -0.21266895454681495000	      2.61577739575249210000	      0.74043439528247967000	     -2.18884130209965070000	     11.58684892983739300000	     -3.60666638212505750000	     -1.63460422443116650000	    -59.95147077974620900000	      6.05085570836957040000	     -0.00000000000106549519	      0.00000000000043753914	      2.40651746029199830000	      4.47217352386939830000	     -0.68780449648152908000	    -15.05243016799741300000	      9.21665058382641970000	     -0.00000000000001283467	     -0.00000000000003594828	     -8.66411523575035150000	      0.38212714390243646000	      6.96590290394528470000	      0.58206553434961472000	      0.03534435779454824000	     -0.03763153847568967400	     22.36129694398724900000	     -5.88777674958359580000	     12.80737259182998300000	     95.20934971050124300000	     16.82526515741007200000	     35.35554550931741600000	      2.60373795464192210000	     41.47258826703546200000	     -0.00000000000223351795	      0.00000000000125378590	    -84.02530134072129900000	      0.83309349376704822000	      8.98229674502392680000	     36.69475531459215000000	     16.11900403991677400000	      0.00000000000007562546	     -0.00000000000037518542	    -27.20546499238193800000	      9.07451041270040550000	     -9.54706868665091870000
      1.15666999999998340000	      1.37907906682959690000	      0.89967223418616205000	     -0.21268773069832259000	      2.62695278808040780000	      0.73748400471205899000	     -2.18243220840262310000	     11.63441758536569600000	     -3.59823364766918760000	     -1.61692451484545960000	    -59.94999111741040600000	      6.07153690157784800000	     -0.00000000000106661212	      0.00000000000043816625	      2.36452409161703380000	      4.47258339068936460000	     -0.68327071758008462000	    -15.03409678261281700000	      9.22471498218006940000	     -0.00000000000001279483	     -0.00000000000003613641	     -8.67772625390134960000	      0.38666864505959359000	      6.96114247700043710000	      0.58161314787185603000	      0.03490490336303932200	     -0.03747323319984594700	     22.34013713182415700000	     -5.91388176987560410000	     12.82913666315190000000	     95.06521415695864600000	     16.90570001420828600000	     35.36267731541553900000	      3.31481259246293680000	     41.25201737323269000000	     -0.00000000000223384453	      0.00000000000125464750	    -83.94799134430350300000	      0.80625167407113529000	      9.15230524399139970000	     36.63852163909615500000	     16.13878784023533100000	      0.00000000000007583889	     -0.00000000000036163796	    -27.23840658199910100000	      9.09166183277675620000	     -9.49497271882587410000
      1.15716999999998340000	      1.37936976084283790000	      0.89968957663133931000	     -0.21270642794400368000	      2.63811739617668990000	      0.73452041540876212000	     -2.17601202698161660000	     11.68191408505319200000	     -3.58976065435329830000	     -1.59924217282155450000	    -59.94815606307848600000	      6.09210756231905130000	     -0.00000000000106772907	      0.00000000000043879351	      2.32256965219911080000	      4.47297965003616580000	     -0.67865269931636629000	    -15.01579191348732900000	      9.23278966083556620000	     -0.00000000000001275486	     -0.00000000000003632695	     -8.69135343838580180000	      0.39121897466270517000	      6.95640759560763480000	      0.58116333993987757000	      0.03446476271137045200	     -0.03731591208400669000	     22.31815710337529900000	     -5.94057538984802310000	     12.85173145953125800000	     94.92072512754100400000	     16.98630131202099500000	     35.36605484669277600000	      4.02531080934590600000	     41.03046621473020400000	     -0.00000000000223408244	      0.00000000000125443394	    -83.86958193381681800000	      0.77865683834792465000	      9.31926511246921590000	     36.58068526219603500000	     16.16030693878202800000	      0.00000000000009318405	     -0.00000000000041606904	    -27.27012445510875700000	      9.10982681139256020000	     -9.44489054797291420000
